<svg version="1.1" xmlns="http://www.w3.org/2000/svg" xmlns:xlink="http://www.w3.org/1999/xlink" width="121.88433" height="152.0008" viewBox="0,0,121.88433,152.0008"><g transform="translate(-253.12064,-137.81572)"><g data-paper-data="{&quot;isPaintingLayer&quot;:true}" fill-rule="nonzero" stroke="#000000" stroke-width="4.5" stroke-linejoin="miter" stroke-miterlimit="10" stroke-dasharray="" stroke-dashoffset="0" style="mix-blend-mode: normal"><path d="M264.65321,213.16445c-0.01651,0.00022 -0.03313,0.00033 -0.04986,0.00033c-2.5,0 -2.5,-2.5 -2.5,-2.5c0,-13.27471 -3.68007,-26.3893 -5.4425,-39.60198c-1.05314,-7.89523 -0.15722,-15.8565 -1.27679,-23.69346c0.11048,-1.31804 -0.43097,-2.8733 0.33144,-3.95413c3.52013,-4.99035 12.9114,-2.92658 18.13553,-2.92658c18.91453,0 37.82106,0.42035 56.74708,0.42035c6.61963,0 13.15067,0.42035 19.75639,0.42035c0.84091,0 6.61053,-0.10858 7.19921,0.37337c2.91699,2.38814 4.74926,9.07018 6.07068,12.59823c1.73269,4.62611 2.33643,8.9977 3.44283,13.70494c0.24017,1.02183 0.96075,1.88167 1.24733,2.89147c1.49014,5.25067 2.32911,11.31998 3.01317,16.73677c0.88889,6.22908 1.79495,12.72081 1.27465,19.03338c-0.2687,3.25997 -1.03457,6.39308 -1.72785,9.56286c-0.93066,4.25511 -0.91816,9.17321 -1.21236,13.52734c-0.27702,4.0998 0.01203,8.32499 0.00629,12.43324c-0.00222,1.58731 0.1553,4.50712 -0.49407,6.06716c-0.63917,1.53554 -1.68104,2.8705 -2.52156,4.30575c-1.93605,-1.0251 -4.04938,-1.76922 -5.80816,-3.0753c-0.53733,-0.39903 -4.45067,-5.14056 -5.26479,-6.1175c-2.41716,-2.90059 -5.1787,-5.53681 -7.57908,-8.42246c-1.43231,-1.72187 -2.82939,-3.5172 -3.8286,-5.52167c-0.23181,-0.46502 0.25981,-1.85253 -0.16281,-1.55025c-0.72787,0.52062 -0.79507,1.608 -1.09614,2.45073c-0.85816,2.40211 -1.5203,4.87214 -2.40368,7.26509c-3.73851,10.12709 -6.33488,20.49816 -8.87003,31.00677c-1.89965,-0.34996 -4.15366,0.1091 -5.69895,-1.04987c-1.41993,-1.06496 -1.35631,-3.28574 -2.17887,-4.85855c-1.00532,-1.92226 -2.28209,-3.71755 -3.06669,-5.73995c-0.76587,-1.97412 -2.15268,-4.98735 -2.7369,-7.31241c-0.50259,0.83049 -1.09088,1.61764 -1.51401,2.49068c-1.22695,2.53155 -2.22424,5.16875 -3.27158,7.77973c-3.06609,7.64365 -3.8916,16.14703 -7.5673,23.55178l-0.78057,2.34171c-0.31417,1.02156 -1.26534,1.76412 -2.38994,1.76412c-0.99801,0 -1.85943,-0.58479 -2.26029,-1.43041l-1.65717,-3.31435l0.05721,-0.02861c-0.06783,-0.10428 -0.13408,-0.20968 -0.1986,-0.31632c-0.47165,-0.77946 -0.24722,-1.80897 -0.46917,-2.69257c-0.63748,-2.53785 -1.56745,-5.05917 -2.11353,-7.61589c-0.39813,-1.86404 -0.16342,-3.86122 -0.78009,-5.66479c-1.38605,-4.0538 -2.60838,-8.07358 -3.80598,-12.26426c-0.7851,-2.74725 -1.84333,-5.32167 -2.46694,-8.11587c-0.68791,1.93136 -1.40011,3.85429 -2.0496,5.79882c-1.15617,2.59777 -1.56112,5.5227 -2.94935,8.00423c-0.86481,1.5459 -1.61815,4.07494 -3.38942,4.09282c-3.51847,0.0355 -6.6291,-7.91921 -7.58056,-10.44186c-4.91999,-13.04454 -6.44348,-26.76073 -8.11804,-40.41302z" fill="#ffffff" stroke-linecap="butt"/><path d="M273.01033,190.48805c0,7.19672 3.48164,13.03081 7.77645,13.03081c4.29482,0 7.77645,-5.83409 7.77645,-13.03081c0,-7.19672 -3.48164,-13.03081 -7.77645,-13.03081c-4.29482,0 -7.77645,5.83409 -7.77645,13.03081z" fill="#ffffff" stroke-linecap="butt"/><path d="M348.20857,209.7799c0,7.19672 3.48164,13.03081 7.77645,13.03081c4.29481,0 7.77645,-5.83409 7.77645,-13.03081c0,-7.19672 -3.48163,-13.03081 -7.77645,-13.03081c-4.29481,0 -7.77645,5.83409 -7.77645,13.03081z" fill="#ffffff" stroke-linecap="butt"/><path d="M267.54579,169.05026l12.61046,-13.45116l8.82732,15.13256" fill="none" stroke-linecap="round"/><path d="M341.52717,189.64735l8.82732,-13.45116l10.08837,10.92907" fill="none" stroke-linecap="round"/><path d="M274.27137,213.18688l55.48604,22.69883" fill="none" stroke-linecap="round"/></g></g></svg>
